<svg width="334.06788330078126px" height="96.11428833007812px" xmlns="http://www.w3.org/2000/svg" viewBox="82.96605834960937 26.942855834960938 334.06788330078126 96.11428833007812" style="background: rgba(0, 0, 0, 0);" preserveAspectRatio="xMidYMid"><defs><linearGradient id="editing-sticker-gradient" x1="0.5" y1="0.2" x2="0.5" y2="0.8"><stop offset="0" stop-color="#ffc7ff"></stop><stop offset="1" stop-color="#cb80ff"></stop></linearGradient><filter id="editing-sticker" x="-100%" y="-100%" width="300%" height="300%"><feMorphology operator="erode" radius="1" in="SourceAlpha" result="alpha-erode"></feMorphology><feConvolveMatrix order="3,3" divisor="1" kernelMatrix="0 1 0 1 1 1 0 1 0" in="alpha-erode" result="alpha-round"></feConvolveMatrix><feMorphology operator="dilate" radius="3.5" in="alpha-round" result="dilate-shadow"></feMorphology><feGaussianBlur in="dilate-shadow" stdDeviation="1.5" result="shadow"></feGaussianBlur><feFlood flood-color="#fff" result="flood-sticker"></feFlood><feComposite operator="in" in="flood-sticker" in2="alpha-round" result="comp-sticker"></feComposite><feMorphology operator="dilate" radius="3" in="comp-sticker" result="morph-sticker"></feMorphology><feConvolveMatrix order="3,3" divisor="1" kernelMatrix="0 1 0 1 1 1 0 1 0" in="morph-sticker" result="sticker"></feConvolveMatrix><feMerge><feMergeNode in="shadow"></feMergeNode><feMergeNode in="sticker"></feMergeNode><feMergeNode in="SourceGraphic"></feMergeNode></feMerge></filter></defs><g filter="url(#editing-sticker)"><g transform="translate(135.37578308582306, 97.07999992370605)"><path d="M4.90 0L-0.62 0L8.06-31.68L18.10-31.68L20.30-13.58L29.23-31.68L37.63-31.68L38.50-7.97L38.50-7.97Q38.69-3.26 40.99-1.82L40.99-1.82L40.99-1.82Q40.46-0.86 38.93 0.05L38.93 0.05L38.93 0.05Q37.39 0.96 35.35 0.96L35.35 0.96L35.35 0.96Q33.31 0.96 32.11 0.38L32.11 0.38L32.11 0.38Q30.91-0.19 30.24-1.15L30.24-1.15L30.24-1.15Q29.04-2.88 29.04-6.19L29.04-6.19L29.04-21.02L19.58 0L13.63 0L10.27-21.55L4.90 0ZM62.50-8.11L62.50-8.11L62.50-8.11Q63.70-7.30 63.70-5.50L63.70-5.50L63.70-5.50Q63.70-3.70 62.78-2.54L62.78-2.54L62.78-2.54Q61.87-1.39 60.38-0.62L60.38-0.62L60.38-0.62Q57.31 0.96 54 0.96L54 0.96L54 0.96Q50.69 0.96 48.74 0.24L48.74 0.24L48.74 0.24Q46.80-0.48 45.50-1.82L45.50-1.82L45.50-1.82Q42.96-4.37 42.96-9.02L42.96-9.02L42.96-9.02Q42.96-16.27 46.90-20.69L46.90-20.69L46.90-20.69Q51.12-25.44 58.46-25.44L58.46-25.44L58.46-25.44Q63.02-25.44 65.28-23.52L65.28-23.52L65.28-23.52Q66.96-22.08 66.96-19.73L66.96-19.73L66.96-19.73Q66.96-11.28 52.37-11.28L52.37-11.28L52.37-11.28Q52.18-10.03 52.18-8.98L52.18-8.98L52.18-8.98Q52.18-6.77 53.16-5.93L53.16-5.93L53.16-5.93Q54.14-5.09 55.97-5.09L55.97-5.09L55.97-5.09Q57.79-5.09 59.74-5.93L59.74-5.93L59.74-5.93Q61.68-6.77 62.50-8.11ZM52.70-13.34L52.70-13.34L52.70-13.34Q56.11-13.34 58.08-15.46L58.08-15.46L58.08-15.46Q60.05-17.47 60.05-20.69L60.05-20.69L60.05-20.69Q60.05-21.79 59.64-22.39L59.64-22.39L59.64-22.39Q59.23-22.99 58.42-22.99L58.42-22.99L58.42-22.99Q57.60-22.99 56.90-22.68L56.90-22.68L56.90-22.68Q56.21-22.37 55.49-21.31L55.49-21.31L55.49-21.31Q53.71-18.91 52.70-13.34ZM72.00-20.06L72.00-20.06L72.00-20.06Q73.63-22.37 76.10-23.90L76.10-23.90L76.10-23.90Q78.58-25.44 81.60-25.44L81.60-25.44L81.60-25.44Q84.62-25.44 86.06-24.48L86.06-24.48L95.47-25.44L92.21-7.01L92.21-7.01Q90.53 2.40 86.98 6.10L86.98 6.10L86.98 6.10Q83.57 9.60 76.94 9.60L76.94 9.60L76.94 9.60Q71.90 9.60 69.02 8.02L69.02 8.02L69.02 8.02Q66.14 6.43 66.14 3.79L66.14 3.79L66.14 3.79Q66.14 1.82 67.63 0.70L67.63 0.70L67.63 0.70Q69.12-0.43 71.42-0.43L71.42-0.43L71.42-0.43Q73.44-0.43 74.98 0.48L74.98 0.48L74.98 0.48Q75.89 0.96 76.32 1.63L76.32 1.63L76.32 1.63Q75.22 2.59 75.22 4.18L75.22 4.18L75.22 4.18Q75.22 6.24 77.14 6.24L77.14 6.24L77.14 6.24Q80.35 6.24 82.18-1.34L82.18-1.34L82.18-1.34Q82.70-3.41 83.14-5.47L83.14-5.47L83.14-5.47Q80.98-2.83 76.08-2.83L76.08-2.83L76.08-2.83Q72.67-2.83 70.70-4.46L70.70-4.46L70.70-4.46Q68.74-6.10 68.74-9.94L68.74-9.94L68.74-9.94Q68.74-12.34 69.55-15.05L69.55-15.05L69.55-15.05Q70.37-17.76 72.00-20.06ZM78.24-9.79L78.24-9.79L78.24-9.79Q78.24-6.53 79.92-6.53L79.92-6.53L79.92-6.53Q81.07-6.53 82.18-7.78L82.18-7.78L82.18-7.78Q83.04-8.78 83.38-10.27L83.38-10.27L85.82-22.61L85.82-22.61Q85.58-22.66 85.34-22.75L85.34-22.75L85.34-22.75Q84.86-22.94 84.24-22.94L84.24-22.94L84.24-22.94Q81.31-22.94 79.58-18.14L79.58-18.14L79.58-18.14Q78.24-14.40 78.24-9.79ZM99.43-1.44L99.43-1.44L99.43-1.44Q98.30-2.69 97.80-4.66L97.80-4.66L97.80-4.66Q97.30-6.62 97.30-9.84L97.30-9.84L97.30-9.84Q97.30-13.06 98.40-15.98L98.40-15.98L98.40-15.98Q99.50-18.91 101.52-21.02L101.52-21.02L101.52-21.02Q105.65-25.44 112.46-25.44L112.46-25.44L112.46-25.44Q114.91-25.44 116.69-24.62L116.69-24.62L124.90-25.44L121.34-6.72L121.34-6.72Q121.20-6.14 121.20-5.09L121.20-5.09L121.20-5.09Q121.20-4.03 121.85-3.36L121.85-3.36L121.85-3.36Q122.50-2.69 123.46-2.59L123.46-2.59L123.46-2.59Q122.98-0.96 121.22 0L121.22 0L121.22 0Q119.47 0.96 117.50 0.96L117.50 0.96L117.50 0.96Q115.54 0.96 114.22 0.22L114.22 0.22L114.22 0.22Q112.90-0.53 112.51-1.78L112.51-1.78L112.51-1.78Q111.74-0.58 110.11 0.19L110.11 0.19L110.11 0.19Q108.48 0.96 106.30 0.96L106.30 0.96L106.30 0.96Q104.11 0.96 102.34 0.38L102.34 0.38L102.34 0.38Q100.56-0.19 99.43-1.44ZM109.56-20.93L109.56-20.93L109.56-20.93Q109.01-20.06 108.53-18.60L108.53-18.60L108.53-18.60Q108.05-17.14 107.26-13.22L107.26-13.22L107.26-13.22Q106.46-9.31 106.46-6.53L106.46-6.53L106.46-6.53Q106.46-3.74 106.90-2.93L106.90-2.93L106.90-2.93Q107.33-2.11 108.10-2.11L108.10-2.11L108.10-2.11Q109.63-2.11 110.76-3.58L110.76-3.58L110.76-3.58Q111.89-5.04 112.32-7.63L112.32-7.63L114.86-21.70L114.86-21.70Q113.86-22.56 112.68-22.56L112.68-22.56L112.68-22.56Q111.50-22.56 110.81-22.18L110.81-22.18L110.81-22.18Q110.11-21.79 109.56-20.93ZM127.01-0.24L127.01-0.24L133.06-31.68L133.06-31.68Q138.72-32.16 142.37-32.16L142.37-32.16L142.37-32.16Q146.02-32.16 148.37-31.85L148.37-31.85L148.37-31.85Q150.72-31.54 152.30-30.72L152.30-30.72L152.30-30.72Q155.47-29.18 155.47-24.96L155.47-24.96L155.47-24.96Q155.47-22.51 153.36-20.45L153.36-20.45L153.36-20.45Q151.39-18.58 149.23-18.14L149.23-18.14L149.23-18.14Q151.54-17.76 153.17-16.03L153.17-16.03L153.17-16.03Q154.90-14.21 154.90-11.38L154.90-11.38L154.90-11.38Q154.90-5.90 150.82-2.71L150.82-2.71L150.82-2.71Q146.74 0.48 138.72 0.48L138.72 0.48L138.72 0.48Q133.20 0.48 127.01-0.24ZM140.06-15.46L137.66-3.02L137.66-3.02Q138.10-2.98 138.19-2.98L138.19-2.98L138.62-2.98L138.62-2.98Q142.56-2.98 144.24-5.57L144.24-5.57L144.24-5.57Q145.49-7.58 145.49-11.28L145.49-11.28L145.49-11.28Q145.49-13.25 144.22-14.30L144.22-14.30L144.22-14.30Q142.94-15.36 140.06-15.46L140.06-15.46ZM147.36-24.91L147.36-24.91L147.36-24.91Q147.36-28.90 143.52-28.90L143.52-28.90L143.09-28.90L143.09-28.90Q142.90-28.90 142.61-28.85L142.61-28.85L140.69-18.72L141.17-18.72L141.17-18.72Q147.36-18.86 147.36-24.91ZM169.54-2.64L169.54-2.64L169.54-2.64Q168.05 0.96 163.30 0.96L163.30 0.96L163.30 0.96Q160.90 0.96 159.36-0.72L159.36-0.72L159.36-0.72Q158.11-2.11 158.11-3.70L158.11-3.70L158.11-3.70Q158.11-7.30 159.79-15.17L159.79-15.17L163.30-33.60L173.04-34.56L168.38-10.27L168.38-10.27Q167.57-6.72 167.57-5.47L167.57-5.47L167.57-5.47Q167.57-2.74 169.54-2.64ZM184.08 0.96L184.08 0.96L184.08 0.96Q173.52 0.96 173.52-8.98L173.52-8.98L173.52-8.98Q173.52-16.03 177.41-20.59L177.41-20.59L177.41-20.59Q181.54-25.44 188.69-25.44L188.69-25.44L188.69-25.44Q193.87-25.44 196.51-23.04L196.51-23.04L196.51-23.04Q199.15-20.64 199.15-15.60L199.15-15.60L199.15-15.60Q199.15-7.92 195.02-3.46L195.02-3.46L195.02-3.46Q190.99 0.96 184.08 0.96ZM185.33-19.92L185.33-19.92L185.33-19.92Q184.75-18.62 184.30-16.68L184.30-16.68L184.30-16.68Q183.84-14.74 183.26-11.66L183.26-11.66L183.26-11.66Q182.69-8.59 182.69-4.80L182.69-4.80L182.69-4.80Q182.69-3.55 183.10-2.74L183.10-2.74L183.10-2.74Q183.50-1.92 184.61-1.92L184.61-1.92L184.61-1.92Q185.71-1.92 186.41-2.45L186.41-2.45L186.41-2.45Q187.10-2.98 187.63-4.22L187.63-4.22L187.63-4.22Q188.59-6.43 189.36-10.54L189.36-10.54L189.36-10.54Q190.13-14.64 190.20-16.42L190.20-16.42L190.20-16.42Q190.27-18.19 190.27-19.51L190.27-19.51L190.27-19.51Q190.27-20.83 189.89-21.70L189.89-21.70L189.89-21.70Q189.50-22.56 188.42-22.56L188.42-22.56L188.42-22.56Q187.34-22.56 186.62-21.89L186.62-21.89L186.62-21.89Q185.90-21.22 185.33-19.92ZM205.39-20.06L205.39-20.06L205.39-20.06Q207.02-22.37 209.50-23.90L209.50-23.90L209.50-23.90Q211.97-25.44 214.99-25.44L214.99-25.44L214.99-25.44Q218.02-25.44 219.46-24.48L219.46-24.48L228.86-25.44L225.60-7.01L225.60-7.01Q223.92 2.40 220.37 6.10L220.37 6.10L220.37 6.10Q216.96 9.60 210.34 9.60L210.34 9.60L210.34 9.60Q205.30 9.60 202.42 8.02L202.42 8.02L202.42 8.02Q199.54 6.43 199.54 3.79L199.54 3.79L199.54 3.79Q199.54 1.82 201.02 0.70L201.02 0.70L201.02 0.70Q202.51-0.43 204.82-0.43L204.82-0.43L204.82-0.43Q206.83-0.43 208.37 0.48L208.37 0.48L208.37 0.48Q209.28 0.96 209.71 1.63L209.71 1.63L209.71 1.63Q208.61 2.59 208.61 4.18L208.61 4.18L208.61 4.18Q208.61 6.24 210.53 6.24L210.53 6.24L210.53 6.24Q213.74 6.24 215.57-1.34L215.57-1.34L215.57-1.34Q216.10-3.41 216.53-5.47L216.53-5.47L216.53-5.47Q214.37-2.83 209.47-2.83L209.47-2.83L209.47-2.83Q206.06-2.83 204.10-4.46L204.10-4.46L204.10-4.46Q202.13-6.10 202.13-9.94L202.13-9.94L202.13-9.94Q202.13-12.34 202.94-15.05L202.94-15.05L202.94-15.05Q203.76-17.76 205.39-20.06ZM211.63-9.79L211.63-9.79L211.63-9.79Q211.63-6.53 213.31-6.53L213.31-6.53L213.31-6.53Q214.46-6.53 215.57-7.78L215.57-7.78L215.57-7.78Q216.43-8.78 216.77-10.27L216.77-10.27L219.22-22.61L219.22-22.61Q218.98-22.66 218.74-22.75L218.74-22.75L218.74-22.75Q218.26-22.94 217.63-22.94L217.63-22.94L217.63-22.94Q214.70-22.94 212.98-18.14L212.98-18.14L212.98-18.14Q211.63-14.40 211.63-9.79Z" fill="url(#editing-sticker-gradient)" stroke="#6c35de" stroke-width="2.5"></path></g></g><style>text {
  font-size: 64px;
  font-family: Arial Black;
  dominant-baseline: central;
  text-anchor: middle;
}</style></svg>