<svg width="738.167919921875px" height="297.02857666015626px" xmlns="http://www.w3.org/2000/svg" viewBox="-119.08395996093748 -73.51428833007813 738.167919921875 297.02857666015626" style="background: rgba(0, 0, 0, 0);" preserveAspectRatio="xMidYMid"><defs><linearGradient id="editing-gradient-gradient" x1="0" x2="1" y1="0.5" y2="0.5" gradientUnits="objectBoundingBox"><stop offset="0" stop-color="#6c35de"></stop><stop offset="1" stop-color="#cb80ff"></stop></linearGradient></defs><g><g transform="translate(-14.920013904571533, 110.15999794006348)"><path d="M42.88-30.80L42.88-30.80L42.88-30.80Q44.32-30.80 44.96-31.44L44.96-31.44L44.96-31.44Q45.60-32.08 46.96-34.16L46.96-34.16L56.72-49.04L56.72-49.04Q57.20-49.84 57.80-50.12L57.80-50.12L57.80-50.12Q58.40-50.40 59.04-50.40L59.04-50.40L60.40-50.40L60.40-50.40Q61.52-50.40 62.04-49.80L62.04-49.80L62.04-49.80Q62.56-49.20 62.56-47.92L62.56-47.92L62.56-7.20L61.76-7.20L61.76-47.92L61.76-47.92Q61.76-48.56 61.48-49.08L61.48-49.08L61.48-49.08Q61.20-49.60 60.40-49.60L60.40-49.60L59.20-49.60L59.20-49.60Q58.64-49.60 58.24-49.44L58.24-49.44L58.24-49.44Q57.84-49.28 57.36-48.48L57.36-48.48L47.60-33.76L47.60-33.76Q46.16-31.60 45.40-30.80L45.40-30.80L45.40-30.80Q44.64-30 42.88-30L42.88-30L42.88-30Q41.12-30 40.36-30.80L40.36-30.80L40.36-30.80Q39.60-31.60 38.16-33.76L38.16-33.76L28.40-48.48L28.40-48.48Q27.92-49.28 27.48-49.44L27.48-49.44L27.48-49.44Q27.04-49.60 26.48-49.60L26.48-49.60L25.28-49.60L25.28-49.60Q24.48-49.60 24.24-49.08L24.24-49.08L24.24-49.08Q24-48.56 24-47.92L24-47.92L24-7.20L23.20-7.20L23.20-47.92L23.20-47.92Q23.20-49.20 23.72-49.80L23.72-49.80L23.72-49.80Q24.24-50.40 25.28-50.40L25.28-50.40L26.64-50.40L26.64-50.40Q27.28-50.40 27.92-50.12L27.92-50.12L27.92-50.12Q28.56-49.84 29.04-49.04L29.04-49.04L38.80-34.16L38.80-34.16Q40.16-32.08 40.80-31.44L40.80-31.44L40.80-31.44Q41.44-30.80 42.88-30.80ZM17.60 0L29.52 0L29.52 0Q31.04 0 31.72-0.68L31.72-0.68L31.72-0.68Q32.40-1.36 32.40-2.88L32.40-2.88L32.40-31.04L37.12-22.32L37.12-22.32Q37.84-20.96 38.84-20.36L38.84-20.36L38.84-20.36Q39.84-19.76 41.36-19.76L41.36-19.76L44.56-19.76L44.56-19.76Q46.08-19.76 47.08-20.36L47.08-20.36L47.08-20.36Q48.08-20.96 48.80-22.32L48.80-22.32L53.52-31.04L53.52-2.88L53.52-2.88Q53.52-1.36 54.20-0.68L54.20-0.68L54.20-0.68Q54.88 0 56.40 0L56.40 0L68.72 0L68.72 0Q70.24 0 70.92-0.68L70.92-0.68L70.92-0.68Q71.60-1.36 71.60-2.88L71.60-2.88L71.60-54.72L71.60-54.72Q71.60-56.24 70.92-56.92L70.92-56.92L70.92-56.92Q70.24-57.60 68.72-57.60L68.72-57.60L55.76-57.60L55.76-57.60Q54.48-57.60 53.64-57.04L53.64-57.04L53.64-57.04Q52.80-56.48 52.08-55.20L52.08-55.20L44.96-42.16L44.96-42.16Q44.56-41.44 44.28-41.12L44.28-41.12L44.28-41.12Q44-40.80 43.52-40.80L43.52-40.80L42.80-40.80L42.80-40.80Q42.32-40.80 42.04-41.12L42.04-41.12L42.04-41.12Q41.76-41.44 41.36-42.16L41.36-42.16L34.16-55.20L34.16-55.20Q33.44-56.48 32.60-57.04L32.60-57.04L32.60-57.04Q31.76-57.60 30.48-57.60L30.48-57.60L17.60-57.60L17.60-57.60Q16.08-57.60 15.40-56.92L15.40-56.92L15.40-56.92Q14.72-56.24 14.72-54.72L14.72-54.72L14.72-2.88L14.72-2.88Q14.72-1.36 15.40-0.68L15.40-0.68L15.40-0.68Q16.08 0 17.60 0L17.60 0ZM32.08 0.08L32.08 0.08L21.68 8.72L21.68 8.72Q21.36 9.04 20.68 9.28L20.68 9.28L20.68 9.28Q20 9.52 19.20 9.52L19.20 9.52L7.28 9.52L7.28 9.52Q5.36 9.52 4.48 8.64L4.48 8.64L4.48 8.64Q3.60 7.76 3.60 5.84L3.60 5.84L3.60-46L3.60-46Q3.60-47.04 3.88-47.76L3.88-47.76L3.88-47.76Q4.16-48.48 4.72-48.96L4.72-48.96L15.04-57.68L15.04-57.68Q15.44-58 16.12-58.20L16.12-58.20L16.12-58.20Q16.80-58.40 17.60-58.40L17.60-58.40L30.48-58.40L30.48-58.40Q32-58.40 33-57.76L33-57.76L33-57.76Q34-57.12 34.88-55.60L34.88-55.60L40.32-45.60L41.04-46.88L41.04-46.88Q41.36-47.44 41.72-47.96L41.72-47.96L41.72-47.96Q42.08-48.48 42.48-48.80L42.48-48.80L52.80-57.44L52.80-57.44Q53.44-57.92 54.12-58.16L54.12-58.16L54.12-58.16Q54.80-58.40 55.76-58.40L55.76-58.40L68.72-58.40L68.72-58.40Q70.64-58.40 71.52-57.52L71.52-57.52L71.52-57.52Q72.40-56.64 72.40-54.72L72.40-54.72L72.40-2.88L72.40-2.88Q72.40-1.84 72.12-1.12L72.12-1.12L72.12-1.12Q71.84-0.40 71.28 0.08L71.28 0.08L60.88 8.72L60.88 8.72Q60.56 9.04 59.88 9.28L59.88 9.28L59.88 9.28Q59.20 9.52 58.40 9.52L58.40 9.52L46.08 9.52L46.08 9.52Q44.08 9.52 43.24 8.64L43.24 8.64L43.24 8.64Q42.40 7.76 42.40 5.84L42.40 5.84L42.40-15.28L37.68-11.36L37.68-11.36Q37.04-10.80 36.20-10.52L36.20-10.52L36.20-10.52Q35.36-10.24 34.24-10.24L34.24-10.24L33.20-10.24L33.20-2.88L33.20-2.88Q33.20-1.84 32.92-1.12L32.92-1.12L32.92-1.12Q32.64-0.40 32.08 0.08ZM120.32 9.52L120.32 9.52L83.20 9.52L83.20 9.52Q81.28 9.52 80.40 8.64L80.40 8.64L80.40 8.64Q79.52 7.76 79.52 5.84L79.52 5.84L79.52-46L79.52-46Q79.52-47.04 79.80-47.76L79.80-47.76L79.80-47.76Q80.08-48.48 80.64-48.96L80.64-48.96L90.96-57.68L90.96-57.68Q91.36-58 92.04-58.20L92.04-58.20L92.04-58.20Q92.72-58.40 93.52-58.40L93.52-58.40L130.64-58.40L130.64-58.40Q132.56-58.40 133.44-57.52L133.44-57.52L133.44-57.52Q134.32-56.64 134.32-54.72L134.32-54.72L134.32-45.36L134.32-45.36Q134.32-44.32 134.04-43.60L134.04-43.60L134.04-43.60Q133.76-42.88 133.20-42.40L133.20-42.40L126.32-36.72L126.32-36.72Q127.12-36.32 127.48-35.52L127.48-35.52L127.48-35.52Q127.84-34.72 127.84-33.44L127.84-33.44L127.84-24.88L127.84-24.88Q127.84-23.84 127.56-23.12L127.56-23.12L127.56-23.12Q127.28-22.40 126.72-21.92L126.72-21.92L119.60-15.92L130.64-15.92L130.64-15.92Q132.56-15.92 133.44-15.04L133.44-15.04L133.44-15.04Q134.32-14.16 134.32-12.24L134.32-12.24L134.32-2.88L134.32-2.88Q134.32-1.84 134.04-1.12L134.04-1.12L134.04-1.12Q133.76-0.40 133.20 0.08L133.20 0.08L122.80 8.72L122.80 8.72Q122.48 9.04 121.80 9.28L121.80 9.28L121.80 9.28Q121.12 9.52 120.32 9.52ZM93.52 0L130.64 0L130.64 0Q132.16 0 132.84-0.68L132.84-0.68L132.84-0.68Q133.52-1.36 133.52-2.88L133.52-2.88L133.52-12.24L133.52-12.24Q133.52-13.76 132.84-14.44L132.84-14.44L132.84-14.44Q132.16-15.12 130.64-15.12L130.64-15.12L108.56-15.12L108.56-22L124.16-22L124.16-22Q125.68-22 126.36-22.68L126.36-22.68L126.36-22.68Q127.04-23.36 127.04-24.88L127.04-24.88L127.04-33.44L127.04-33.44Q127.04-34.96 126.36-35.64L126.36-35.64L126.36-35.64Q125.68-36.32 124.16-36.32L124.16-36.32L108.56-36.32L108.56-42.48L130.64-42.48L130.64-42.48Q132.16-42.48 132.84-43.16L132.84-43.16L132.84-43.16Q133.52-43.84 133.52-45.36L133.52-45.36L133.52-54.72L133.52-54.72Q133.52-56.24 132.84-56.92L132.84-56.92L132.84-56.92Q132.16-57.60 130.64-57.60L130.64-57.60L93.52-57.60L93.52-57.60Q92-57.60 91.32-56.92L91.32-56.92L91.32-56.92Q90.64-56.24 90.64-54.72L90.64-54.72L90.64-2.88L90.64-2.88Q90.64-1.36 91.32-0.68L91.32-0.68L91.32-0.68Q92 0 93.52 0L93.52 0ZM100.16-8L126.32-8L126.32-7.20L99.36-7.20L99.36-50.40L126.32-50.40L126.32-49.60L100.16-49.60L100.16-29.52L119.84-29.52L119.84-28.72L100.16-28.72L100.16-8ZM184.64 9.52L184.64 9.52L159.44 9.52L159.44 9.52Q148.96 9.52 143.96 4.08L143.96 4.08L143.96 4.08Q138.96-1.36 138.96-10L138.96-10L138.96-32.56L138.96-32.56Q138.96-36.96 140.24-40.16L140.24-40.16L140.24-40.16Q141.52-43.36 144-45.52L144-45.52L154.32-54.24L154.32-54.24Q156.80-56.32 160.68-57.36L160.68-57.36L160.68-57.36Q164.56-58.40 169.76-58.40L169.76-58.40L189.76-58.40L189.76-58.40Q191.68-58.40 192.56-57.52L192.56-57.52L192.56-57.52Q193.44-56.64 193.44-54.72L193.44-54.72L193.44-45.04L193.44-45.04Q193.44-44 193.16-43.28L193.16-43.28L193.16-43.28Q192.88-42.56 192.32-42.08L192.32-42.08L181.92-33.44L181.92-33.44Q181.60-33.12 180.92-32.88L180.92-32.88L180.92-32.88Q180.24-32.64 179.44-32.64L179.44-32.64L169.04-32.64L169.04-21.12L169.04-21.12Q169.12-21.28 169.32-21.48L169.32-21.48L169.32-21.48Q169.52-21.68 169.68-21.84L169.68-21.84L180-30.56L180-30.56Q180.40-30.88 181.08-31.08L181.08-31.08L181.08-31.08Q181.76-31.28 182.56-31.28L182.56-31.28L194.96-31.28L194.96-31.28Q196.88-31.28 197.76-30.40L197.76-30.40L197.76-30.40Q198.64-29.52 198.64-27.60L198.64-27.60L198.64-2.88L198.64-2.88Q198.64-1.84 198.36-1.12L198.36-1.12L198.36-1.12Q198.08-0.40 197.52 0.08L197.52 0.08L187.12 8.72L187.12 8.72Q186.80 9.04 186.12 9.28L186.12 9.28L186.12 9.28Q185.44 9.52 184.64 9.52ZM169.76 0L194.96 0L194.96 0Q196.48 0 197.16-0.68L197.16-0.68L197.16-0.68Q197.84-1.36 197.84-2.88L197.84-2.88L197.84-27.60L197.84-27.60Q197.84-29.12 197.16-29.80L197.16-29.80L197.16-29.80Q196.48-30.48 194.96-30.48L194.96-30.48L182.56-30.48L182.56-30.48Q181.04-30.48 180.36-29.80L180.36-29.80L180.36-29.80Q179.68-29.12 179.68-27.60L179.68-27.60L179.68-15.12L171.92-15.12L171.92-15.12Q170.08-15.12 169.16-16.08L169.16-16.08L169.16-16.08Q168.24-17.04 168.24-19.04L168.24-19.04L168.24-38.16L168.24-38.16Q168.24-40.16 169.44-41.16L169.44-41.16L169.44-41.16Q170.64-42.16 173.12-42.16L173.12-42.16L189.76-42.16L189.76-42.16Q191.28-42.16 191.96-42.84L191.96-42.84L191.96-42.84Q192.64-43.52 192.64-45.04L192.64-45.04L192.64-54.72L192.64-54.72Q192.64-56.24 191.96-56.92L191.96-56.92L191.96-56.92Q191.28-57.60 189.76-57.60L189.76-57.60L169.76-57.60L169.76-57.60Q159.76-57.60 154.92-53.60L154.92-53.60L154.92-53.60Q150.08-49.60 150.08-41.28L150.08-41.28L150.08-16.32L150.08-16.32Q150.08-8 154.92-4L154.92-4L154.92-4Q159.76 0 169.76 0L169.76 0ZM189.12-7.20L173.20-7.20L173.20-7.20Q168.80-7.20 166-7.76L166-7.76L166-7.76Q163.20-8.32 161.60-9.56L161.60-9.56L161.60-9.56Q160-10.80 159.40-12.76L159.40-12.76L159.40-12.76Q158.80-14.72 158.80-17.52L158.80-17.52L158.80-39.92L158.80-39.92Q158.80-45.60 161.36-48L161.36-48L161.36-48Q163.92-50.40 171.60-50.40L171.60-50.40L185.44-50.40L185.44-49.60L171.60-49.60L171.60-49.60Q164.56-49.60 162.08-47.40L162.08-47.40L162.08-47.40Q159.60-45.20 159.60-39.92L159.60-39.92L159.60-17.52L159.60-17.52Q159.60-12.32 162.36-10.16L162.36-10.16L162.36-10.16Q165.12-8 173.20-8L173.20-8L188.32-8L188.32-23.28L189.12-23.28L189.12-7.20ZM223.68-24.24L223.68-24.24L223.68-21.76L254.88-21.76L254.88-24.24L254.88-24.24Q254.88-26.40 254.52-28.24L254.52-28.24L254.52-28.24Q254.16-30.08 253.60-31.68L253.60-31.68L248.08-44.72L248.08-44.72Q247.20-46.80 246.24-48.20L246.24-48.20L246.24-48.20Q245.28-49.60 243.04-49.60L243.04-49.60L235.20-49.60L235.20-49.60Q232.80-49.60 231.84-48.20L231.84-48.20L231.84-48.20Q230.88-46.80 230.08-44.80L230.08-44.80L224.96-31.68L224.96-31.68Q224.40-30.08 224.04-28.24L224.04-28.24L224.04-28.24Q223.68-26.40 223.68-24.24ZM232.72-28.64L236.48-40.80L236.48-40.80Q236.80-41.52 237.16-41.84L237.16-41.84L237.16-41.84Q237.52-42.16 238-42.16L238-42.16L240-42.16L240-42.16Q240.48-42.16 240.84-41.84L240.84-41.84L240.84-41.84Q241.20-41.52 241.52-40.80L241.52-40.80L245.28-28.64L232.72-28.64ZM255.68-7.20L254.88-7.20L254.88-20.96L223.68-20.96L223.68-7.20L222.88-7.20L222.88-24.24L222.88-24.24Q222.88-26.48 223.24-28.36L223.24-28.36L223.24-28.36Q223.60-30.24 224.24-32L224.24-32L229.36-45.12L229.36-45.12Q230.24-47.36 231.36-48.88L231.36-48.88L231.36-48.88Q232.48-50.40 235.20-50.40L235.20-50.40L243.04-50.40L243.04-50.40Q245.68-50.40 246.76-48.88L246.76-48.88L246.76-48.88Q247.84-47.36 248.80-45.04L248.80-45.04L254.32-32L254.32-32Q254.96-30.24 255.32-28.36L255.32-28.36L255.32-28.36Q255.68-26.48 255.68-24.24L255.68-24.24L255.68-7.20ZM231.92-2.88L231.92-2.88L231.92-14.08L246.08-14.08L246.08-2.88L246.08-2.88Q246.08-1.36 246.84-0.68L246.84-0.68L246.84-0.68Q247.60 0 249.20 0L249.20 0L261.28 0L261.28 0Q262.80 0 263.48-0.68L263.48-0.68L263.48-0.68Q264.16-1.36 264.16-2.88L264.16-2.88L264.16-24L264.16-24Q264.16-26.40 263.40-29.52L263.40-29.52L263.40-29.52Q262.64-32.64 261.04-36.80L261.04-36.80L254.08-54.96L254.08-54.96Q253.60-56.32 252.60-56.96L252.60-56.96L252.60-56.96Q251.60-57.60 250.08-57.60L250.08-57.60L228.56-57.60L228.56-57.60Q226.96-57.60 225.96-56.96L225.96-56.96L225.96-56.96Q224.96-56.32 224.48-54.96L224.48-54.96L217.52-36.80L217.52-36.80Q215.92-32.64 215.16-29.52L215.16-29.52L215.16-29.52Q214.40-26.40 214.40-24L214.40-24L214.40-2.88L214.40-2.88Q214.40-1.36 215.08-0.68L215.08-0.68L215.08-0.68Q215.76 0 217.28 0L217.28 0L229.04 0L229.04 0Q230.56 0 231.24-0.68L231.24-0.68L231.24-0.68Q231.92-1.36 231.92-2.88ZM231.60 0.08L221.20 8.72L221.20 8.72Q220.88 9.04 220.20 9.28L220.20 9.28L220.20 9.28Q219.52 9.52 218.72 9.52L218.72 9.52L206.96 9.52L206.96 9.52Q205.04 9.52 204.16 8.64L204.16 8.64L204.16 8.64Q203.28 7.76 203.28 5.84L203.28 5.84L203.28-15.28L203.28-15.28Q203.28-17.76 204.04-20.92L204.04-20.92L204.04-20.92Q204.80-24.08 206.48-28.40L206.48-28.40L213.36-46.48L213.36-46.48Q213.60-47.20 213.96-47.72L213.96-47.72L213.96-47.72Q214.32-48.24 214.72-48.64L214.72-48.64L214.80-48.72L225.04-57.28L225.04-57.28Q225.68-57.84 226.56-58.12L226.56-58.12L226.56-58.12Q227.44-58.40 228.56-58.40L228.56-58.40L250.08-58.40L250.08-58.40Q251.92-58.40 253.08-57.64L253.08-57.64L253.08-57.64Q254.24-56.88 254.80-55.28L254.80-55.28L261.76-37.12L261.76-37.12Q263.44-32.80 264.20-29.64L264.20-29.64L264.20-29.64Q264.96-26.48 264.96-24L264.96-24L264.96-2.88L264.96-2.88Q264.96-1.84 264.68-1.12L264.68-1.12L264.68-1.12Q264.40-0.40 263.84 0.08L263.84 0.08L253.44 8.72L253.44 8.72Q253.12 9.04 252.44 9.28L252.44 9.28L252.44 9.28Q251.76 9.52 250.96 9.52L250.96 9.52L238.88 9.52L238.88 9.52Q236.88 9.52 235.92 8.60L235.92 8.60L235.92 8.60Q234.96 7.68 234.96 5.84L234.96 5.84L234.96-4.56L232.72-4.56L232.72-2.88L232.72-2.88Q232.72-1.84 232.44-1.12L232.44-1.12L232.44-1.12Q232.16-0.40 231.60 0.08L231.60 0.08ZM305.28 9.52L274.56 9.52L274.56 9.52Q272.64 9.52 271.76 8.64L271.76 8.64L271.76 8.64Q270.88 7.76 270.88 5.84L270.88 5.84L270.88-46L270.88-46Q270.88-47.04 271.16-47.76L271.16-47.76L271.16-47.76Q271.44-48.48 272-48.96L272-48.96L282.32-57.68L282.32-57.68Q282.72-58 283.40-58.20L283.40-58.20L283.40-58.20Q284.08-58.40 284.88-58.40L284.88-58.40L310.40-58.40L310.40-58.40Q318.72-58.40 322.64-55.16L322.64-55.16L322.64-55.16Q326.56-51.92 326.56-45.36L326.56-45.36L326.56-41.52L326.56-41.52Q326.56-38.72 325.80-36.72L325.80-36.72L325.80-36.72Q325.04-34.72 323.52-33.52L323.52-33.52L323.28-33.36L323.28-33.36Q327.60-32.40 329.76-29.24L329.76-29.24L329.76-29.24Q331.92-26.08 331.92-20.48L331.92-20.48L331.92-13.12L331.92-13.12Q331.92-9.52 330.88-6.92L330.88-6.92L330.88-6.92Q329.84-4.32 327.76-2.56L327.76-2.56L317.44 6.16L317.44 6.16Q315.44 7.84 312.40 8.68L312.40 8.68L312.40 8.68Q309.36 9.52 305.28 9.52L305.28 9.52ZM284.88 0L315.60 0L315.60 0Q323.52 0 327.32-3.20L327.32-3.20L327.32-3.20Q331.12-6.40 331.12-13.12L331.12-13.12L331.12-20.48L331.12-20.48Q331.12-26.32 328.64-29.36L328.64-29.36L328.64-29.36Q326.16-32.40 321.04-32.88L321.04-32.88L321.04-32.88Q323.44-33.92 324.60-36.04L324.60-36.04L324.60-36.04Q325.76-38.16 325.76-41.52L325.76-41.52L325.76-45.36L325.76-45.36Q325.76-51.60 322-54.60L322-54.60L322-54.60Q318.24-57.60 310.40-57.60L310.40-57.60L284.88-57.60L284.88-57.60Q283.36-57.60 282.68-56.92L282.68-56.92L282.68-56.92Q282-56.24 282-54.72L282-54.72L282-2.88L282-2.88Q282-1.36 282.68-0.68L282.68-0.68L282.68-0.68Q283.36 0 284.88 0L284.88 0ZM312.40-7.20L312.40-7.20L290.88-7.20L290.88-50.40L307.12-50.40L307.12-50.40Q310.40-50.40 312.48-49.72L312.48-49.72L312.48-49.72Q314.56-49.04 315.68-47.88L315.68-47.88L315.68-47.88Q316.80-46.72 317.20-45.20L317.20-45.20L317.20-45.20Q317.60-43.68 317.60-41.92L317.60-41.92L317.60-36.80L317.60-36.80Q317.60-34.40 316.76-32.40L316.76-32.40L316.76-32.40Q315.92-30.40 312.48-29.52L312.48-29.52L312.48-29.52Q315.76-29.52 317.84-28.84L317.84-28.84L317.84-28.84Q319.92-28.16 321.04-26.92L321.04-26.92L321.04-26.92Q322.16-25.68 322.52-24L322.52-24L322.52-24Q322.88-22.32 322.88-20.32L322.88-20.32L322.88-15.20L322.88-15.20Q322.88-13.44 322.48-11.96L322.48-11.96L322.48-11.96Q322.08-10.48 321-9.44L321-9.44L321-9.44Q319.92-8.40 317.84-7.80L317.84-7.80L317.84-7.80Q315.76-7.20 312.40-7.20ZM307.12-49.60L307.12-49.60L291.68-49.60L291.68-29.52L307.12-29.52L307.12-29.52Q310.40-29.52 312.32-30.12L312.32-30.12L312.32-30.12Q314.24-30.72 315.24-31.72L315.24-31.72L315.24-31.72Q316.24-32.72 316.52-34.04L316.52-34.04L316.52-34.04Q316.80-35.36 316.80-36.80L316.80-36.80L316.80-41.92L316.80-41.92Q316.80-45.12 314.96-47.36L314.96-47.36L314.96-47.36Q313.12-49.60 307.12-49.60ZM300-35.36L300-44L306.80-44L306.80-44Q308.32-44 309.08-43.20L309.08-43.20L309.08-43.20Q309.84-42.40 309.84-40.80L309.84-40.80L309.84-38.56L309.84-38.56Q309.84-36.96 309.08-36.16L309.08-36.16L309.08-36.16Q308.32-35.36 306.80-35.36L306.80-35.36L300-35.36ZM312.48-28.72L312.48-28.72L291.68-28.72L291.68-8L312.40-8L312.40-8Q318.40-8 320.24-9.96L320.24-9.96L320.24-9.96Q322.08-11.92 322.08-15.20L322.08-15.20L322.08-20.32L322.08-20.32Q322.08-23.92 320.28-26.32L320.28-26.32L320.28-26.32Q318.48-28.72 312.48-28.72ZM300-13.60L300-23.04L310.40-23.04L310.40-23.04Q311.92-23.04 312.68-22.28L312.68-22.28L312.68-22.28Q313.44-21.52 313.44-19.92L313.44-19.92L313.44-16.80L313.44-16.80Q313.44-15.20 312.68-14.40L312.68-14.40L312.68-14.40Q311.92-13.60 310.40-13.60L310.40-13.60L300-13.60ZM381.28 9.52L381.28 9.52L340.56 9.52L340.56 9.52Q338.64 9.52 337.76 8.64L337.76 8.64L337.76 8.64Q336.88 7.76 336.88 5.84L336.88 5.84L336.88-46L336.88-46Q336.88-47.04 337.16-47.76L337.16-47.76L337.16-47.76Q337.44-48.48 338-48.96L338-48.96L348.32-57.68L348.32-57.68Q348.72-58 349.40-58.20L349.40-58.20L349.40-58.20Q350.08-58.40 350.88-58.40L350.88-58.40L363.28-58.40L363.28-58.40Q365.20-58.40 366.08-57.52L366.08-57.52L366.08-57.52Q366.96-56.64 366.96-54.72L366.96-54.72L366.96-22.16L367.12-22.32L377.44-31.04L377.44-31.04Q377.84-31.36 378.52-31.56L378.52-31.56L378.52-31.56Q379.20-31.76 380-31.76L380-31.76L391.60-31.76L391.60-31.76Q393.52-31.76 394.40-30.88L394.40-30.88L394.40-30.88Q395.28-30 395.28-28.08L395.28-28.08L395.28-2.88L395.28-2.88Q395.28-1.84 395-1.12L395-1.12L395-1.12Q394.72-0.40 394.16 0.08L394.16 0.08L383.76 8.72L383.76 8.72Q383.44 9.04 382.76 9.28L382.76 9.28L382.76 9.28Q382.08 9.52 381.28 9.52ZM350.88 0L391.60 0L391.60 0Q393.12 0 393.80-0.68L393.80-0.68L393.80-0.68Q394.48-1.36 394.48-2.88L394.48-2.88L394.48-28.08L394.48-28.08Q394.48-29.60 393.80-30.28L393.80-30.28L393.80-30.28Q393.12-30.96 391.60-30.96L391.60-30.96L380-30.96L380-30.96Q378.48-30.96 377.80-30.28L377.80-30.28L377.80-30.28Q377.12-29.60 377.12-28.08L377.12-28.08L377.12-15.12L366.16-15.12L366.16-54.72L366.16-54.72Q366.16-56.24 365.48-56.92L365.48-56.92L365.48-56.92Q364.80-57.60 363.28-57.60L363.28-57.60L350.88-57.60L350.88-57.60Q349.36-57.60 348.68-56.92L348.68-56.92L348.68-56.92Q348-56.24 348-54.72L348-54.72L348-2.88L348-2.88Q348-1.36 348.68-0.68L348.68-0.68L348.68-0.68Q349.36 0 350.88 0L350.88 0ZM386.16-7.20L356.72-7.20L356.72-50.40L357.52-50.40L357.52-8L385.36-8L385.36-23.76L386.16-23.76L386.16-7.20ZM456.40-2.96L446.08 5.68L446.08 5.68Q443.28 8.08 438.24 9.40L438.24 9.40L438.24 9.40Q433.20 10.72 425.28 10.72L425.28 10.72L425.28 10.72Q417.44 10.72 412.44 9.08L412.44 9.08L412.44 9.08Q407.44 7.44 404.60 4.72L404.60 4.72L404.60 4.72Q401.76 2 400.68-1.52L400.68-1.52L400.68-1.52Q399.60-5.04 399.60-8.80L399.60-8.80L399.60-33.68L399.60-33.68Q399.60-37.36 400.64-40.52L400.64-40.52L400.64-40.52Q401.68-43.68 404.40-45.92L404.40-45.92L414.80-54.56L414.80-54.56Q417.60-56.96 422.60-58.28L422.60-58.28L422.60-58.28Q427.60-59.60 435.60-59.60L435.60-59.60L435.60-59.60Q443.44-59.60 448.44-58.32L448.44-58.32L448.44-58.32Q453.44-57.04 456.28-54.76L456.28-54.76L456.28-54.76Q459.12-52.48 460.16-49.32L460.16-49.32L460.16-49.32Q461.20-46.16 461.20-42.40L461.20-42.40L461.20-15.12L461.20-15.12Q461.20-11.44 460.16-8.32L460.16-8.32L460.16-8.32Q459.12-5.20 456.40-2.96L456.40-2.96ZM460.40-15.12L460.40-15.12L460.40-42.40L460.40-42.40Q460.40-46.08 459.32-49.08L459.32-49.08L459.32-49.08Q458.24-52.08 455.48-54.24L455.48-54.24L455.48-54.24Q452.72-56.40 447.88-57.60L447.88-57.60L447.88-57.60Q443.04-58.80 435.60-58.80L435.60-58.80L435.60-58.80Q428.16-58.80 423.28-57.60L423.28-57.60L423.28-57.60Q418.40-56.40 415.64-54.24L415.64-54.24L415.64-54.24Q412.88-52.08 411.80-49.08L411.80-49.08L411.80-49.08Q410.72-46.08 410.72-42.40L410.72-42.40L410.72-15.12L410.72-15.12Q410.72-11.44 411.80-8.44L411.80-8.44L411.80-8.44Q412.88-5.44 415.64-3.32L415.64-3.32L415.64-3.32Q418.40-1.20 423.28 0L423.28 0L423.28 0Q428.16 1.20 435.60 1.20L435.60 1.20L435.60 1.20Q443.04 1.20 447.88 0L447.88 0L447.88 0Q452.72-1.20 455.48-3.32L455.48-3.32L455.48-3.32Q458.24-5.44 459.32-8.44L459.32-8.44L459.32-8.44Q460.40-11.44 460.40-15.12ZM451.68-40.56L451.68-16.96L451.68-16.96Q451.68-12.16 448.24-9.16L448.24-9.16L448.24-9.16Q444.80-6.16 435.44-6.16L435.44-6.16L435.44-6.16Q426.08-6.16 422.72-9.16L422.72-9.16L422.72-9.16Q419.36-12.16 419.36-16.96L419.36-16.96L419.36-40.56L419.36-40.56Q419.36-45.36 422.72-48.36L422.72-48.36L422.72-48.36Q426.08-51.36 435.44-51.36L435.44-51.36L435.44-51.36Q444.80-51.36 448.24-48.36L448.24-48.36L448.24-48.36Q451.68-45.36 451.68-40.56L451.68-40.56ZM420.16-40.56L420.16-16.96L420.16-16.96Q420.16-12.48 423.36-9.72L423.36-9.72L423.36-9.72Q426.56-6.96 435.44-6.96L435.44-6.96L435.44-6.96Q444.32-6.96 447.60-9.72L447.60-9.72L447.60-9.72Q450.88-12.48 450.88-16.96L450.88-16.96L450.88-40.56L450.88-40.56Q450.88-45.04 447.60-47.80L447.60-47.80L447.60-47.80Q444.32-50.56 435.44-50.56L435.44-50.56L435.44-50.56Q426.56-50.56 423.36-47.80L423.36-47.80L423.36-47.80Q420.16-45.04 420.16-40.56L420.16-40.56ZM428.88-18L428.88-18L428.88-39.52L428.88-39.52Q428.88-41.04 430.08-42.12L430.08-42.12L430.08-42.12Q431.28-43.20 435.60-43.20L435.60-43.20L435.60-43.20Q439.92-43.20 441.12-42.12L441.12-42.12L441.12-42.12Q442.32-41.04 442.32-39.52L442.32-39.52L442.32-18L442.32-18Q442.32-16.40 441.12-15.32L441.12-15.32L441.12-15.32Q439.92-14.24 435.60-14.24L435.60-14.24L435.60-14.24Q431.28-14.24 430.08-15.32L430.08-15.32L430.08-15.32Q428.88-16.40 428.88-18ZM429.68-33.12L429.68-18L429.68-18Q429.68-17.20 430-16.60L430-16.60L430-16.60Q430.32-16 431.20-15.60L431.20-15.60L431.20-30.80L431.20-30.80Q431.20-31.60 430.88-32.20L430.88-32.20L430.88-32.20Q430.56-32.80 429.68-33.12L429.68-33.12ZM512.24 9.52L512.24 9.52L487.04 9.52L487.04 9.52Q476.56 9.52 471.56 4.08L471.56 4.08L471.56 4.08Q466.56-1.36 466.56-10L466.56-10L466.56-32.56L466.56-32.56Q466.56-36.96 467.84-40.16L467.84-40.16L467.84-40.16Q469.12-43.36 471.60-45.52L471.60-45.52L481.92-54.24L481.92-54.24Q484.40-56.32 488.28-57.36L488.28-57.36L488.28-57.36Q492.16-58.40 497.36-58.40L497.36-58.40L517.36-58.40L517.36-58.40Q519.28-58.40 520.16-57.52L520.16-57.52L520.16-57.52Q521.04-56.64 521.04-54.72L521.04-54.72L521.04-45.04L521.04-45.04Q521.04-44 520.76-43.28L520.76-43.28L520.76-43.28Q520.48-42.56 519.92-42.08L519.92-42.08L509.52-33.44L509.52-33.44Q509.20-33.12 508.52-32.88L508.52-32.88L508.52-32.88Q507.84-32.64 507.04-32.64L507.04-32.64L496.64-32.64L496.64-21.12L496.64-21.12Q496.72-21.28 496.92-21.48L496.92-21.48L496.92-21.48Q497.12-21.68 497.28-21.84L497.28-21.84L507.60-30.56L507.60-30.56Q508.00-30.88 508.68-31.08L508.68-31.08L508.68-31.08Q509.36-31.28 510.16-31.28L510.16-31.28L522.56-31.28L522.56-31.28Q524.48-31.28 525.36-30.40L525.36-30.40L525.36-30.40Q526.24-29.52 526.24-27.60L526.24-27.60L526.24-2.88L526.24-2.88Q526.24-1.84 525.96-1.12L525.96-1.12L525.96-1.12Q525.68-0.40 525.12 0.08L525.12 0.08L514.72 8.72L514.72 8.72Q514.40 9.04 513.72 9.28L513.72 9.28L513.72 9.28Q513.04 9.52 512.24 9.52ZM497.36 0L522.56 0L522.56 0Q524.08 0 524.76-0.68L524.76-0.68L524.76-0.68Q525.44-1.36 525.44-2.88L525.44-2.88L525.44-27.60L525.44-27.60Q525.44-29.12 524.76-29.80L524.76-29.80L524.76-29.80Q524.08-30.48 522.56-30.48L522.56-30.48L510.16-30.48L510.16-30.48Q508.64-30.48 507.96-29.80L507.96-29.80L507.96-29.80Q507.28-29.12 507.28-27.60L507.28-27.60L507.28-15.12L499.52-15.12L499.52-15.12Q497.68-15.12 496.76-16.08L496.76-16.08L496.76-16.08Q495.84-17.04 495.84-19.04L495.84-19.04L495.84-38.16L495.84-38.16Q495.84-40.16 497.04-41.16L497.04-41.16L497.04-41.16Q498.24-42.16 500.72-42.16L500.72-42.16L517.36-42.16L517.36-42.16Q518.88-42.16 519.56-42.84L519.56-42.84L519.56-42.84Q520.24-43.52 520.24-45.04L520.24-45.04L520.24-54.72L520.24-54.72Q520.24-56.24 519.56-56.92L519.56-56.92L519.56-56.92Q518.88-57.60 517.36-57.60L517.36-57.60L497.36-57.60L497.36-57.60Q487.36-57.60 482.52-53.60L482.52-53.60L482.52-53.60Q477.68-49.60 477.68-41.28L477.68-41.28L477.68-16.32L477.68-16.32Q477.68-8 482.52-4L482.52-4L482.52-4Q487.36 0 497.36 0L497.36 0ZM516.72-7.20L500.80-7.20L500.80-7.20Q496.40-7.20 493.60-7.76L493.60-7.76L493.60-7.76Q490.80-8.32 489.20-9.56L489.20-9.56L489.20-9.56Q487.60-10.80 487.00-12.76L487.00-12.76L487.00-12.76Q486.40-14.72 486.40-17.52L486.40-17.52L486.40-39.92L486.40-39.92Q486.40-45.60 488.96-48L488.96-48L488.96-48Q491.52-50.40 499.20-50.40L499.20-50.40L513.04-50.40L513.04-49.60L499.20-49.60L499.20-49.60Q492.16-49.60 489.68-47.40L489.68-47.40L489.68-47.40Q487.20-45.20 487.20-39.92L487.20-39.92L487.20-17.52L487.20-17.52Q487.20-12.32 489.96-10.16L489.96-10.16L489.96-10.16Q492.72-8 500.80-8L500.80-8L515.92-8L515.92-23.28L516.72-23.28L516.72-7.20Z" fill="url(#editing-gradient-gradient)"></path></g></g><style>text {
  font-size: 64px;
  font-family: Arial Black;
  dominant-baseline: central;
  text-anchor: middle;
}</style></svg>